<?xml version="1.0" standalone="no"?>
<!DOCTYPE svg PUBLIC "-//W3C//DTD SVG 20010904//EN"
 "http://www.w3.org/TR/2001/REC-SVG-20010904/DTD/svg10.dtd">
<svg version="1.0" xmlns="http://www.w3.org/2000/svg"
 width="119.000000pt" height="119.000000pt" viewBox="0 0 119.000000 119.000000"
 preserveAspectRatio="xMidYMid meet">
<metadata>
Created by potrace 1.14, written by Peter Selinger 2001-2017
</metadata>
<g transform="translate(0.000000,119.000000) scale(0.100000,-0.100000)"
fill="#000000" stroke="none">
<path d="M636 1044 c-20 -20 -20 -29 2 -50 11 -12 17 -35 18 -71 1 -29 -2 -53
-5 -54 -3 0 -40 -2 -81 -3 -147 -5 -234 -87 -243 -228 l-3 -53 -36 -1 c-65 -1
-68 -9 -68 -173 0 -80 4 -152 9 -160 10 -16 155 -21 171 -5 5 5 10 31 12 58
l3 49 258 1 259 1 25 29 c24 29 25 31 21 175 -4 161 -12 187 -72 244 -43 41
-91 59 -161 63 -33 1 -63 3 -67 3 -12 2 -7 101 7 128 13 24 12 29 -2 45 -20
22 -27 22 -47 2z m42 -27 c2 -11 -3 -17 -16 -17 -24 0 -32 8 -25 26 7 20 37
13 41 -9z m157 -187 c49 -23 65 -36 91 -75 31 -45 36 -77 35 -220 -1 -119 -3
-131 -22 -148 -19 -15 -48 -17 -273 -17 l-252 0 0 97 c-1 103 -12 126 -55 118
-18 -4 -19 1 -15 60 3 45 12 74 29 102 56 86 98 101 282 102 118 0 146 -2 180
-19z m-447 -277 c7 -15 9 -73 3 -92 0 -3 -10 5 -21 17 -26 28 -69 28 -104 1
l-26 -20 -1 33 c-3 72 0 74 81 77 48 1 61 -2 68 -16z m-91 -91 c-14 -16 -15
-21 -3 -38 11 -16 12 -23 1 -37 -11 -15 -14 -16 -25 -2 -26 32 -8 95 28 95 13
0 13 -2 -1 -18z m70 -13 c14 -29 7 -65 -14 -73 -11 -5 -13 -2 -9 9 3 9 0 25
-7 37 -10 16 -9 22 1 25 10 4 8 9 -5 19 -17 14 -17 15 2 12 11 -2 25 -15 32
-29z m-101 -84 c29 -27 74 -27 105 1 23 21 25 18 26 -26 l1 -40 -79 0 c-44 0
-79 3 -80 8 -3 21 -4 82 -2 82 1 0 14 -11 29 -25z m31 -101 c0 -10 -8 -14 -25
-12 -37 4 -40 28 -4 28 19 0 29 -5 29 -16z m97 1 c-4 -8 -16 -15 -29 -15 -13
0 -25 7 -29 15 -4 12 3 15 29 15 26 0 33 -3 29 -15z"/>
<path d="M468 792 c-16 -9 -28 -20 -28 -24 0 -12 13 -9 34 7 11 8 28 15 39 15
10 0 15 5 12 10 -9 14 -26 12 -57 -8z"/>
<path d="M473 726 c-26 -23 -28 -29 -29 -111 -2 -77 0 -89 21 -113 22 -26 28
-27 139 -30 114 -4 117 -4 146 -34 32 -32 50 -30 50 5 0 12 14 35 30 50 17 16
31 38 31 50 3 47 -2 143 -7 160 -11 35 -65 47 -213 47 -133 0 -141 -1 -168
-24z m352 -16 c13 -15 18 -39 20 -97 2 -77 2 -79 -31 -110 -19 -17 -34 -39
-34 -47 0 -24 -19 -19 -32 9 -11 25 -13 25 -130 25 -152 0 -158 5 -158 120 0
119 1 120 193 120 141 0 155 -2 172 -20z"/>
<path d="M520 619 c-9 -15 -8 -24 1 -35 18 -21 57 -18 64 6 14 44 -44 69 -65
29z m53 -25 c-3 -8 -12 -14 -19 -14 -20 0 -30 30 -13 40 17 11 40 -7 32 -26z"/>
<path d="M710 625 c-10 -12 -9 -20 4 -40 14 -21 20 -24 37 -15 27 15 34 37 19
55 -16 19 -44 19 -60 0z m47 -29 c-4 -9 -11 -16 -17 -16 -17 0 -24 31 -9 41
18 11 34 -5 26 -25z"/>
<path d="M182 627 c-12 -13 -22 -30 -22 -38 1 -10 5 -9 15 5 8 11 18 17 21 13
4 -4 1 -13 -6 -22 -17 -21 0 -18 28 4 27 24 28 31 2 24 -25 -7 -26 5 -2 23 15
11 15 13 1 14 -8 0 -25 -10 -37 -23z"/>
<path d="M533 313 c10 -9 248 -10 254 0 2 4 -55 7 -128 7 -73 0 -129 -3 -126
-7z"/>
</g>
</svg>
